<svg xmlns="http://www.w3.org/2000/svg" width="720" height="180" viewBox="0 0 720 180" role="img" aria-labelledby="title desc">
  <title id="title">Source AO by HMATIAS</title>
  <desc id="desc">Submarca Source AO para sourcing e procurement da HMATIAS.</desc>
  <defs>
    <linearGradient id="navy" x1="0" y1="0" x2="1" y2="1">
      <stop offset="0" stop-color="#041f3d"/>
      <stop offset="1" stop-color="#0b5f9d"/>
    </linearGradient>
    <linearGradient id="gold" x1="0" y1="0" x2="1" y2="1">
      <stop offset="0" stop-color="#d7a643"/>
      <stop offset="1" stop-color="#f0c768"/>
    </linearGradient>
  </defs>
  <g transform="translate(14 18)">
    <path d="M18 34 76 0l48 28-24 14-24-14-34 20 58 34-58 34 34 20 24-14 24 14-48 28-58-34 24-14 34 20 34-20-58-34 58-34-34-20-34 20z" fill="url(#navy)"/>
    <path d="M76 56 100 42l24 14-24 14zM18 102l24-14 24 14-24 14z" fill="url(#gold)"/>
  </g>
  <g font-family="Inter, Arial, sans-serif">
    <text x="178" y="83" font-size="54" font-weight="800" letter-spacing="-1.2" fill="#041f3d">SOURCE</text>
    <text x="404" y="83" font-size="54" font-weight="800" letter-spacing="-1.2" fill="#d7a643">AO</text>
    <text x="181" y="116" font-size="16" font-weight="700" letter-spacing="3.2" fill="#52677b">PROCUREMENT · SOURCING</text>
    <text x="181" y="145" font-size="13" font-weight="700" letter-spacing="2.4" fill="#7a8998">BY HMATIAS</text>
  </g>
</svg>